<svg xmlns="http://www.w3.org/2000/svg" viewBox="-105.85808296989028,-107.28408306204052,209.54869684980505,200" xoverflow="visible" width="100%" style="height: 95vh;"><defs><marker id="arrow" viewBox="0 0 10 10" refX="15" refY="5" orient="auto-start-reverse" markerWidth="6" markerHeight="6" xoverflow="visible"><path d="M 0 0 L 10 5 L 0 10 z"></path></marker></defs><g stroke="#666" stroke-opacity="0.9"><line stroke-width="1.5" marker-end="url(#arrow)" x1="-79.75576343570691" y1="38.333293924916994" x2="-50.318196347450716" y2="22.474951865451967"></line><line stroke-width="1.5" marker-end="url(#arrow)" x1="-95.85808296989028" y1="-31.72917039513507" x2="-76.54157932995088" y2="-56.66305690973138"></line><line stroke-width="1.5" marker-end="url(#arrow)" x1="60.29933855699332" y1="-6.4551711072976685" x2="53.327069089773985" y2="-40.31952205663249"></line><line stroke-width="1.5" marker-end="url(#arrow)" x1="54.95473932652166" y1="-71.14664817565514" x2="53.327069089773985" y2="-40.31952205663249"></line><line stroke-width="1.5" marker-end="url(#arrow)" x1="-5.7186400865264755" y1="-96.98901912908421" x2="24.71594890579962" y2="-97.28408306204052"></line><line stroke-width="1.5" marker-end="url(#arrow)" x1="32.08682386996537" y1="6.950341874172218" x2="54.1621633619115" y2="31.66681711813865"></line><line stroke-width="1.5" marker-end="url(#arrow)" x1="53.327069089773985" y1="-40.31952205663249" x2="81.5100306247924" y2="-52.43179110397204"></line><line stroke-width="1.5" marker-end="url(#arrow)" x1="-26.387485080324776" y1="47.27005313197257" x2="-50.318196347450716" y2="22.474951865451967"></line><line stroke-width="1.5" marker-end="url(#arrow)" x1="-35.99234251863365" y1="54.856152402315125" x2="-50.318196347450716" y2="22.474951865451967"></line><line stroke-width="1.5" marker-end="url(#arrow)" x1="81.5100306247924" y1="-52.43179110397204" x2="93.69061387991478" y2="-23.729975309959542"></line><line stroke-width="1.5" marker-end="url(#arrow)" x1="-76.54157932995088" y1="-56.66305690973138" x2="-44.505572455363264" y2="-50.01655360372331"></line><line stroke-width="1.5" marker-end="url(#arrow)" x1="61.881905828468895" y1="64.55196912902665" x2="54.1621633619115" y2="31.66681711813865"></line><line stroke-width="1.5" marker-end="url(#arrow)" x1="-44.505572455363264" y1="-50.01655360372331" x2="-40.064534957006586" y2="-15.776191129536913"></line><line stroke-width="1.5" marker-end="url(#arrow)" x1="46.277452754639285" y1="0.312810423301702" x2="54.1621633619115" y2="31.66681711813865"></line><line stroke-width="1.5" marker-end="url(#arrow)" x1="-55.888008288487924" y1="-78.3635125695611" x2="-44.505572455363264" y2="-50.01655360372331"></line><line stroke-width="1.5" marker-end="url(#arrow)" x1="-55.630096477103386" y1="-8.767932456346031" x2="-50.318196347450716" y2="22.474951865451967"></line><line stroke-width="1.5" marker-end="url(#arrow)" x1="37.43741703415171" y1="63.020628804472295" x2="54.1621633619115" y2="31.66681711813865"></line><line stroke-width="1.5" marker-end="url(#arrow)" x1="85.42652689771177" y1="24.11967034586827" x2="54.1621633619115" y2="31.66681711813865"></line><line stroke-width="1.5" marker-end="url(#arrow)" x1="-79.63000186550131" y1="8.42837054742438" x2="-50.318196347450716" y2="22.474951865451967"></line><line stroke-width="1.5" marker-end="url(#arrow)" x1="-47.51201345746449" y1="57.56972358354057" x2="-50.318196347450716" y2="22.474951865451967"></line><line stroke-width="1.5" marker-end="url(#arrow)" x1="74.45667913073304" y1="57.396578670572225" x2="54.1621633619115" y2="31.66681711813865"></line><line stroke-width="1.5" marker-end="url(#arrow)" x1="-50.318196347450716" y1="22.474951865451967" x2="-73.97733695123742" y2="-7.576118744598625"></line><line stroke-width="1.5" marker-end="url(#arrow)" x1="-5.897946262100971" y1="-57.28303852733487" x2="21.602268414401305" y2="-70.47657504845078"></line><line stroke-width="1.5" marker-end="url(#arrow)" x1="-27.06539501689551" y1="-0.5961645427655253" x2="-50.318196347450716" y2="22.474951865451967"></line><line stroke-width="1.5" marker-end="url(#arrow)" x1="-59.530007789078134" y1="56.19115194413628" x2="-50.318196347450716" y2="22.474951865451967"></line><line stroke-width="1.5" marker-end="url(#arrow)" x1="-40.064534957006586" y1="-15.776191129536913" x2="-50.318196347450716" y2="22.474951865451967"></line><line stroke-width="1.5" marker-end="url(#arrow)" x1="93.69061387991478" y1="-23.729975309959542" x2="79.46057407431701" y2="5.715273328986824"></line><line stroke-width="1.5" marker-end="url(#arrow)" x1="23.452923988691154" y1="21.150715170387045" x2="54.1621633619115" y2="31.66681711813865"></line><line stroke-width="1.5" marker-end="url(#arrow)" x1="54.1621633619115" y1="31.66681711813865" x2="60.29933855699332" y2="-6.4551711072976685"></line><line stroke-width="1.5" marker-end="url(#arrow)" x1="27.798529146935113" y1="54.19614747361876" x2="54.1621633619115" y2="31.66681711813865"></line><line stroke-width="1.5" marker-end="url(#arrow)" x1="14.921053728702518" y1="-41.01305687042954" x2="21.602268414401305" y2="-70.47657504845078"></line><line stroke-width="1.5" marker-end="url(#arrow)" x1="79.46057407431701" y1="5.715273328986824" x2="54.1621633619115" y2="31.66681711813865"></line><line stroke-width="1.5" marker-end="url(#arrow)" x1="-70.78101828909024" y1="49.27082174263598" x2="-50.318196347450716" y2="22.474951865451967"></line><line stroke-width="1.5" marker-end="url(#arrow)" x1="-18.735025780392448" y1="14.313363103431685" x2="-50.318196347450716" y2="22.474951865451967"></line><line stroke-width="1.5" marker-end="url(#arrow)" x1="-83.28890035656363" y1="23.42519751889834" x2="-50.318196347450716" y2="22.474951865451967"></line><line stroke-width="1.5" marker-end="url(#arrow)" x1="-73.97733695123742" y1="-7.576118744598625" x2="-95.85808296989028" y2="-31.72917039513507"></line><line stroke-width="1.5" marker-end="url(#arrow)" x1="21.602268414401305" y1="-70.47657504845078" x2="14.921053728702518" y2="-41.01305687042954"></line><line stroke-width="1.5" marker-end="url(#arrow)" x1="22.336836902475927" y1="40.64670871927387" x2="54.1621633619115" y2="31.66681711813865"></line><line stroke-width="1.5" marker-end="url(#arrow)" x1="-30.573256521991542" y1="-77.2898957853372" x2="-44.505572455363264" y2="-50.01655360372331"></line><line stroke-width="1.5" marker-end="url(#arrow)" x1="48.90641960519884" y1="65.73114908539664" x2="54.1621633619115" y2="31.66681711813865"></line><line stroke-width="1.5" marker-end="url(#arrow)" x1="-19.55273125422798" y1="33.553194872150236" x2="-50.318196347450716" y2="22.474951865451967"></line><line stroke-width="1.5" marker-end="url(#arrow)" x1="84.51608151924029" y1="42.71484360133485" x2="54.1621633619115" y2="31.66681711813865"></line></g><g stroke="#fff" stroke-width="1.5"><circle r="5" fill="#ff7f0e" cx="-47.51201345746449" cy="57.56972358354057"><title>0</title></circle><circle r="5" fill="#2ca02c" cx="-50.318196347450716" cy="22.474951865451967"><title>1</title></circle><circle r="5" fill="#2ca02c" cx="-73.97733695123742" cy="-7.576118744598625"><title>2</title></circle><circle r="5" fill="#2ca02c" cx="-95.85808296989028" cy="-31.72917039513507"><title>3</title></circle><circle r="5" fill="#2ca02c" cx="-76.54157932995088" cy="-56.66305690973138"><title>4</title></circle><circle r="5" fill="#2ca02c" cx="-44.505572455363264" cy="-50.01655360372331"><title>5</title></circle><circle r="5" fill="#2ca02c" cx="-40.064534957006586" cy="-15.776191129536913"><title>6</title></circle><circle r="5" fill="#ff7f0e" cx="-26.387485080324776" cy="47.27005313197257"><title>7</title></circle><circle r="5" fill="#ff7f0e" cx="-70.78101828909024" cy="49.27082174263598"><title>8</title></circle><circle r="5" fill="#ff7f0e" cx="-55.630096477103386" cy="-8.767932456346031"><title>9</title></circle><circle r="5" fill="#ff7f0e" cx="-5.897946262100971" cy="-57.28303852733487"><title>10</title></circle><circle r="5" fill="#2ca02c" cx="21.602268414401305" cy="-70.47657504845078"><title>11</title></circle><circle r="5" fill="#2ca02c" cx="14.921053728702518" cy="-41.01305687042954"><title>12</title></circle><circle r="5" fill="#ff7f0e" cx="-27.06539501689551" cy="-0.5961645427655253"><title>13</title></circle><circle r="5" fill="#ff7f0e" cx="37.43741703415171" cy="63.020628804472295"><title>14</title></circle><circle r="5" fill="#2ca02c" cx="54.1621633619115" cy="31.66681711813865"><title>15</title></circle><circle r="5" fill="#2ca02c" cx="60.29933855699332" cy="-6.4551711072976685"><title>16</title></circle><circle r="5" fill="#2ca02c" cx="53.327069089773985" cy="-40.31952205663249"><title>17</title></circle><circle r="5" fill="#2ca02c" cx="81.5100306247924" cy="-52.43179110397204"><title>18</title></circle><circle r="5" fill="#2ca02c" cx="93.69061387991478" cy="-23.729975309959542"><title>19</title></circle><circle r="5" fill="#2ca02c" cx="79.46057407431701" cy="5.715273328986824"><title>20</title></circle><circle r="5" fill="#ff7f0e" cx="-19.55273125422798" cy="33.553194872150236"><title>21</title></circle><circle r="5" fill="#ff7f0e" cx="54.95473932652166" cy="-71.14664817565514"><title>22</title></circle><circle r="5" fill="#ff7f0e" cx="46.277452754639285" cy="0.312810423301702"><title>23</title></circle><circle r="5" fill="#ff7f0e" cx="-59.530007789078134" cy="56.19115194413628"><title>24</title></circle><circle r="5" fill="#ff7f0e" cx="23.452923988691154" cy="21.150715170387045"><title>25</title></circle><circle r="5" fill="#ff7f0e" cx="84.51608151924029" cy="42.71484360133485"><title>26</title></circle><circle r="5" fill="#ff7f0e" cx="74.45667913073304" cy="57.396578670572225"><title>27</title></circle><circle r="5" fill="#ff7f0e" cx="-55.888008288487924" cy="-78.3635125695611"><title>28</title></circle><circle r="5" fill="#ff7f0e" cx="27.798529146935113" cy="54.19614747361876"><title>29</title></circle><circle r="5" fill="#ff7f0e" cx="-18.735025780392448" cy="14.313363103431685"><title>30</title></circle><circle r="5" fill="#ff7f0e" cx="-5.7186400865264755" cy="-96.98901912908421"><title>31</title></circle><circle r="5" fill="#2ca02c" cx="24.71594890579962" cy="-97.28408306204052"><title>32</title></circle><circle r="5" fill="#ff7f0e" cx="22.336836902475927" cy="40.64670871927387"><title>33</title></circle><circle r="5" fill="#ff7f0e" cx="-79.75576343570691" cy="38.333293924916994"><title>34</title></circle><circle r="5" fill="#ff7f0e" cx="48.90641960519884" cy="65.73114908539664"><title>35</title></circle><circle r="5" fill="#ff7f0e" cx="85.42652689771177" cy="24.11967034586827"><title>36</title></circle><circle r="5" fill="#ff7f0e" cx="32.08682386996537" cy="6.950341874172218"><title>37</title></circle><circle r="5" fill="#ff7f0e" cx="-30.573256521991542" cy="-77.2898957853372"><title>38</title></circle><circle r="5" fill="#ff7f0e" cx="61.881905828468895" cy="64.55196912902665"><title>39</title></circle><circle r="5" fill="#ff7f0e" cx="-35.99234251863365" cy="54.856152402315125"><title>40</title></circle><circle r="5" fill="#ff7f0e" cx="-83.28890035656363" cy="23.42519751889834"><title>41</title></circle><circle r="5" fill="#ff7f0e" cx="-79.63000186550131" cy="8.42837054742438"><title>42</title></circle></g></svg>
